<?xml version="1.0" encoding="utf-8"?>
<!-- Generator: Adobe Illustrator 27.0.1, SVG Export Plug-In . SVG Version: 6.00 Build 0)  -->
<svg version="1.1" id="Layer_1" xmlns="http://www.w3.org/2000/svg" xmlns:xlink="http://www.w3.org/1999/xlink" x="0px" y="0px"
	 viewBox="0 0 481.5 481.5" style="enable-background:new 0 0 481.5 481.5;" xml:space="preserve">
<style type="text/css">
	.st0{fill:#3A4C72;}
</style>
<g>
	<path class="st0" d="M472,375c-57-35.5-113.8-71.6-170.4-107.8c-6.4-4.1-11-4.8-17.5-0.3c-11.1,7.8-23.3,14.2-34.5,22
		c-6.4,4.4-11.4,4.2-17.7-0.2c-11.2-7.8-22.6-15.3-34.7-21.6c-4.2-2.2-11.8-2.3-15.7,0.1c-57.9,36-115.3,72.6-173.1,108.7
		c-6.9,4.3-8.1,8.7-5.8,16.2c6.3,20.8,23.2,32.6,48.7,32.7c63,0.1,126,0,189,0s126,0.1,189,0c25.3,0,42.8-10.9,49.4-29.9
		C481.7,386.5,480.8,380.5,472,375z"/>
	<path class="st0" d="M2,142.5C2,209,2,273.7,2,339.9c52.2-33.2,102.8-65.5,155.1-98.7C104.7,207.8,53.9,175.4,2,142.5z"/>
	<path class="st0" d="M427.2,57.1c-62.1,0-124.1,0-186.2,0c-60.6,0-121.3-0.1-181.9,0.1c-7.5,0-15.1,0.3-22.4,1.8
		C19.1,62.6,7.9,73.4,2.6,90.8c-2.3,7.7-0.4,11.7,6.4,16c74,46.6,147.8,93.4,221.4,140.6c7.9,5.1,13.2,5,21.1,0
		c72.8-46.6,145.8-93.1,219.2-138.8c10.6-6.6,11.6-13.3,7.2-23.1C467.9,63.6,449.4,57.1,427.2,57.1z"/>
	<path class="st0" d="M480,142.6c-52.3,33.3-102.9,65.5-154.8,98.6c51.8,33,102.5,65.3,154.8,98.5C480,272.9,480,209,480,142.6z"/>
</g>
</svg>
