<?xml version="1.0" encoding="utf-8"?>
<!-- Generator: Adobe Illustrator 27.0.1, SVG Export Plug-In . SVG Version: 6.00 Build 0)  -->
<svg version="1.1" id="Layer_1" xmlns="http://www.w3.org/2000/svg" xmlns:xlink="http://www.w3.org/1999/xlink" x="0px" y="0px"
	 viewBox="0 0 140.9 174.2" style="enable-background:new 0 0 140.9 174.2;" xml:space="preserve">
<style type="text/css">
	.Drop_x0020_Shadow{fill:none;}
	.Round_x0020_Corners_x0020_2_x0020_pt{fill:#FFFFFF;stroke:#000000;stroke-miterlimit:10;}
	.Live_x0020_Reflect_x0020_X{fill:none;}
	.Bevel_x0020_Soft{fill:url(#SVGID_1_);}
	.Dusk{fill:#FFFFFF;}
	.Foliage_GS{fill:#FFDD00;}
	.Pompadour_GS{fill-rule:evenodd;clip-rule:evenodd;fill:#44ADE2;}
	.st0{fill-rule:evenodd;clip-rule:evenodd;fill:#D3A52A;}
	.st1{fill:#D3A52A;}
	.st2{fill:none;stroke:#FFFFFF;stroke-width:0.5051;stroke-miterlimit:22.9256;}
</style>
<linearGradient id="SVGID_1_" gradientUnits="userSpaceOnUse" x1="-234.15" y1="-310.591" x2="-233.4429" y2="-309.8839">
	<stop  offset="0" style="stop-color:#DEDFE3"/>
	<stop  offset="0.1738" style="stop-color:#D8D9DD"/>
	<stop  offset="0.352" style="stop-color:#C9CACD"/>
	<stop  offset="0.5323" style="stop-color:#B4B5B8"/>
	<stop  offset="0.7139" style="stop-color:#989A9C"/>
	<stop  offset="0.8949" style="stop-color:#797C7E"/>
	<stop  offset="1" style="stop-color:#656B6C"/>
</linearGradient>
<g>
	<path class="st0" d="M34.7,13.6c2.8,2.3,71.8,61.5,99.1,70.3l1.8-3.6c0,0,8.1-14.7,4.2-27.5c0,0-2.6-5.5-2.4-9.9
		c0,0,0.5-9.4-5.8-13.9c0,0-1.8-8.9-11.8-11.5c0,0-2.1-8.6-15.7-9.7c0,0-3.7-4.4-13.1-2.9c0,0-8.1-7.3-22.8-2.4
		c0,0-6.8-1.6-11.8,2.6C56.6,5.2,38.9,4.7,34.7,13.6"/>
	<g>
		<path class="st1" d="M12.9,87.2c0,0,4,0.3,7.9-1.1l0.2,1.6c1.8,1.6,5.4,0.8,5.4,0.8h0.3c6.6-0.3,10.3,3.1,12.3,6
			c1.1-3,2.4-5.3,2.6-5.7c4.2-8.6,15.6-9,17.1-9c3.3-0.6,3.5-3.5,3.5-4.7c-3.6-2.9-3.7-8-3.6-9.9c-1.7-1.7-2.2-3.2-2.3-4.2
			c-2.9-2-3.3-4.9-3.7-7.6c-0.3-1.8-0.5-3.5-1.7-4.1c-1.8-1-4.2-1.6-6.7-2.1c-2.3-0.5-4.6-1-6.7-2c-1.4-0.6-2.6-1.5-3.8-2.5
			s-2.2-2-3.1-3C30,39.1,29.5,38.1,29,37c-0.6-1.2-1.3-2.5-1.5-2.5c-0.4-0.1,0.1,0.4-0.3,0.6c-0.7,0.5-1.4,1-2.2,1.2
			c-0.5,1.7-1.8,3.5-2.7,4.6c-1.6,7.3-6,27.4-9.9,36.3l-2.3,5.9C10.4,82.9,8.1,86.9,12.9,87.2z M26.7,64.4c1.6-3.8,6.5-5.8,10-5.2
			c0.1,0-3.6,0.9-5.6,1.8c1.4-0.7,3-0.5,3.1-0.4c4.2,0.4,8.4,3.8,13.4,4c0.2,0,0.4,1.8,0.3,1.8c-5.7-0.8-8.1-3.1-11.9-4.1
			c0.5,0.6,0.8,1.4,0.8,2.3c0,2-1.6,3.6-3.6,3.6s-3.6-1.6-3.6-3.6c0-1,0.4-2,1.2-2.6c-0.7,0.2-1.4,0.4-2,0.8
			c-0.8,0.7-2.5,2.7-2.6,2.9C26.2,65.7,26.6,64.5,26.7,64.4z"/>
		<path class="st1" d="M114.3,112.7l-0.2-0.3c-8.2-12.1-30.2-23.4-30.2-23.5l-1.6-0.8l1.1-1.5c0,0,5.3-7.4-0.4-9.9l0,0
			c-0.5-0.2-6.2-2.2-8.6,6.5l0,0c0,0-1.5,5.8-0.5,8.3c0.2,0.5,5.1,11-5.4,19.9l0,0c0,0-9.8,8.2-17.8,13.5
			c-0.9,11.5-3.6,43.7-4.9,49.3c2.9-8.7,44.1-25.7,50.8-29.1l25.8-12.1c-2.3-5.5-4.8-12.2-5.6-18L114.3,112.7z"/>
		<path class="st1" d="M50.9,120.8L50.9,120.8c7.2-5,15.1-11.6,15.4-11.8l0,0c8.9-7.5,4.6-16.1,4.6-16.1v-0.1
			c-1.4-3.4,0.3-10.3,0.3-10.3l0,0c3.5-12.6,12.9-8.6,13-8.6l0,0c7,3.2,4.3,10.1,2.6,13.1c5.2,2.8,22.3,12.7,29.8,23.5v-0.3
			c0,0,6.3-13.1,11.5-19.9c0,0-26.2-14.7-49.7-33.8c0,0-38.2-28.8-47.6-38.5L29,16.4c0,0-5.8-0.4-8,1.6c-1.6,1.5,0.1,1.9,0.1,1.9
			s-5.2,0.2-5.5,4.1c0,0-3.1,0.5-3.7,2.9c-0.4,1.8,2.1,2.2,2.1,2.2s-2.1,0.1-1.8,2.4c0,0-0.1,2.4,4.8,2.3c0,0-2.2,3.5,3.8,4.1
			c0.9-1.2,1.8-2.6,1.6-3.2l2.2-0.6L25,34c-0.2-0.1-0.4-0.3-0.6-0.4c-0.2-0.2-0.3-0.4-0.1-0.4c0.3-0.1,0.9-0.5,1.4-0.8
			c1-0.7,1.9-1.3,2.9-1c1.4,0.4,2.4,2.4,3.4,4.1c0.5,0.9,0.9,1.7,1.1,2c0.9,0.9,1.9,1.9,2.9,2.8c1,0.8,2,1.6,3.1,2.1
			c1.7,0.8,3.9,1.3,6,1.8c2.7,0.6,5.3,1.2,7.5,2.5c2.5,1.4,2.8,3.8,3.2,6.4c0.3,2.2,0.7,4.6,3,5.9l1.4,0.8l-0.8,1.4
			c0,0-0.3,0.5,1.9,2.4l0.7,0.6L61.9,65c0,0-0.9,5.8,2.7,8.2l0.5,0.4l0.1,0.6c0,0,1.5,7.7-6.1,9h-0.3c0,0-10.8-0.2-14.4,7.2v0.1
			c0,0-2.5,4.3-3.4,8.9l-3.1,0.1c0,0-2.1-7.8-10.9-7.6c-0.7,0.1-3.8,0.6-6.4-0.5c0,0.8,0.4,1.7,1.4,2.4c0,0-3.1,2.4-0.5,4.7v3.1
			c0,0-9.2,15.8-21.5,25.2c0,0,9.2,19.7,44.6-1.7l0,0l0.3-0.2C46.8,123.4,48.8,122.2,50.9,120.8z"/>
	</g>
	<path class="st2" d="M36.8,64.5c0,2-1.6,3.6-3.6,3.6s-3.6-1.6-3.6-3.6c0-1,0.4-2,1.2-2.6c-0.7,0.2-1.4,0.4-2,0.8
		c-0.8,0.7-2.5,2.7-2.6,2.9c0,0.1,0.3-1.1,0.4-1.2c1.6-3.8,6.5-5.8,10-5.2c0.1,0-3.6,0.9-5.6,1.8c1.4-0.7,3-0.5,3.1-0.4
		c4.2,0.4,8.4,3.8,13.4,4c0.2,0,0.4,1.8,0.3,1.8c-5.7-0.8-8.1-3.1-11.9-4.1C36.5,62.8,36.8,63.6,36.8,64.5z"/>
</g>
</svg>
