<?xml version="1.0" encoding="utf-8"?>
<!-- Generator: Adobe Illustrator 27.0.1, SVG Export Plug-In . SVG Version: 6.00 Build 0)  -->
<svg version="1.1" id="Layer_1" xmlns="http://www.w3.org/2000/svg" xmlns:xlink="http://www.w3.org/1999/xlink" x="0px" y="0px"
	 viewBox="0 0 481.5 481.5" style="enable-background:new 0 0 481.5 481.5;" xml:space="preserve">
<style type="text/css">
	.st0{fill:#3A4C72;}
</style>
<g>
	<path class="st0" d="M428.4,355c-0.9-3.3-7.6-8.4-20-15.2c-3.3-2.1-8.1-5-14.3-8.7c-6.2-3.7-11.8-7.1-16.8-10.2
		c-5-3.1-9.7-6.1-14.1-9c-0.7-0.6-2.9-2.2-6.6-5c-3.7-2.8-6.8-4.9-9.4-6.2c-2.6-1.4-5.1-2.1-7.6-2.2c-3.6-0.1-8.2,2.2-13.9,7.1
		c-5.6,4.9-10.8,10.3-15.6,16.2c-4.8,5.9-9.8,11.2-15,16.2s-9.5,7.3-12.8,7.2c-1.6-0.1-3.6-0.6-6-1.6c-2.4-1-4.2-1.8-5.5-2.5
		c-1.2-0.7-3.3-2-6.3-4.1c-3-2-4.7-3.1-5-3.3c-24.2-14.8-44.7-31.3-61.7-49.8c-16.9-18.4-31.8-40.3-44.4-65.6
		c-0.2-0.4-1.1-2.1-2.9-5.3c-1.8-3.2-2.9-5.4-3.5-6.7c-0.6-1.3-1.3-3.2-2.1-5.7c-0.8-2.5-1.2-4.5-1.1-6.1c0.1-3.2,2.9-7.3,8.2-12.1
		c5.4-4.8,11.1-9.4,17.4-13.7c6.2-4.3,12-9,17.4-14.2c5.4-5.2,8.1-9.6,8.3-13.2c0.1-2.5-0.4-5.1-1.6-7.8c-1.2-2.7-3-6-5.4-9.9
		c-2.5-3.9-3.9-6.2-4.5-7c-2.5-4.6-5.1-9.6-7.8-14.8c-2.7-5.3-5.6-11.1-8.8-17.6c-3.2-6.5-5.7-11.4-7.5-15
		c-5.8-12.9-10.3-20-13.5-21.2c-1.2-0.6-3.1-0.9-5.6-1c-4.9-0.2-11.3,0.4-19.2,1.9c-7.9,1.5-14.2,3.1-18.8,4.9
		c-9.2,3.4-19.2,14-30.1,31.8c-9.9,16.6-15.2,33.2-15.9,49.8c-0.2,4.9-0.1,9.6,0.3,14.3c0.4,4.6,1.4,9.9,2.7,15.7
		c1.4,5.8,2.5,10.2,3.4,13s2.5,7.9,4.9,15.3c2.4,7.3,3.8,11.8,4.3,13.5c5.6,18,12.4,34.1,20.5,48.3c13.3,23.7,31.7,48.4,55.3,74
		c23.6,25.7,46.7,46.1,69.2,61.3c13.5,9.2,29,17.4,46.4,24.4c1.6,0.6,6,2.4,13.1,5.4c7.1,3,12,5.1,14.8,6.2c2.8,1.1,7,2.6,12.7,4.5
		s10.8,3.2,15.4,4c4.6,0.8,9.3,1.3,14.2,1.5c16.6,0.7,33.6-3.2,50.9-11.7c18.6-9.3,30.1-18.4,34.2-27.3c2.2-4.4,4.3-10.5,6.5-18.3
		c2.1-7.8,3.3-14.1,3.5-19C429.1,358.2,428.9,356.3,428.4,355z"/>
</g>
</svg>
