<?xml version="1.0" encoding="utf-8"?>
<!-- Generator: Adobe Illustrator 27.0.1, SVG Export Plug-In . SVG Version: 6.00 Build 0)  -->
<svg version="1.1" id="Capa_1" xmlns="http://www.w3.org/2000/svg" xmlns:xlink="http://www.w3.org/1999/xlink" x="0px" y="0px"
	 viewBox="0 0 500 500" style="enable-background:new 0 0 500 500;" xml:space="preserve">
<style type="text/css">
	.st0{fill:none;stroke:#222221;stroke-width:10;stroke-miterlimit:10;}
	.st1{fill:#222221;}
</style>
<path class="st0" d="M250,464.4L250,464.4c-118.4,0-214.4-96-214.4-214.4S131.6,35.6,250,35.6s214.4,96,214.4,214.4
	S368.4,464.4,250,464.4z"/>
<path class="st1" d="M250,153.6c31.4,0,35.1,0.1,47.5,0.7c11.5,0.5,17.7,2.4,21.8,4c5.5,2.1,9.4,4.7,13.5,8.8
	c4.1,4.1,6.6,8,8.8,13.5c1.6,4.1,3.5,10.4,4.1,21.8c0.5,12.4,0.7,16.1,0.7,47.5s-0.1,35.1-0.7,47.5c-0.5,11.5-2.5,17.7-4.1,21.8
	c-2.1,5.5-4.7,9.4-8.8,13.5s-8,6.6-13.5,8.8c-4.1,1.6-10.4,3.5-21.8,4.1c-12.4,0.5-16.1,0.7-47.5,0.7s-35.1-0.1-47.5-0.7
	c-11.4-0.5-17.7-2.5-21.8-4.1c-5.5-2.1-9.4-4.7-13.5-8.8s-6.6-8-8.8-13.5c-1.6-4.1-3.5-10.4-4.1-21.8c-0.6-12.4-0.7-16.1-0.7-47.5
	s0.1-35.1,0.7-47.5c0.5-11.4,2.4-17.7,4.1-21.8c2.1-5.5,4.7-9.4,8.8-13.5c4.1-4.1,8-6.6,13.5-8.8c4.1-1.6,10.4-3.5,21.8-4
	C214.9,153.8,218.6,153.6,250,153.6 M250,132.4c-31.9,0-35.9,0.1-48.5,0.7c-12.5,0.6-21.1,2.6-28.5,5.5c-7.7,3-14.3,7-20.8,13.6
	c-6.5,6.5-10.6,13.1-13.6,20.8c-2.9,7.5-4.9,16-5.5,28.5c-0.6,12.6-0.7,16.5-0.7,48.5s0.1,35.9,0.7,48.5c0.6,12.5,2.6,21,5.5,28.5
	c3,7.7,7,14.3,13.6,20.8s13.1,10.5,20.8,13.6c7.5,2.9,16,4.9,28.5,5.5c12.5,0.6,16.5,0.7,48.5,0.7s35.9-0.1,48.5-0.7
	c12.5-0.6,21-2.6,28.5-5.5c7.7-3,14.3-7,20.8-13.6s10.5-13.1,13.6-20.8c2.9-7.5,4.9-16,5.5-28.5c0.5-12.5,0.7-16.5,0.7-48.5
	s-0.1-35.9-0.7-48.5c-0.6-12.5-2.6-21.1-5.5-28.5c-3-7.7-7-14.3-13.6-20.8c-6.5-6.5-13.1-10.6-20.8-13.6c-7.5-2.9-16-4.9-28.5-5.5
	C285.9,132.6,281.9,132.4,250,132.4"/>
<path class="st1" d="M250,189.6c-33.3,0-60.4,27-60.4,60.4s27,60.4,60.4,60.4s60.4-27,60.4-60.4S283.3,189.6,250,189.6 M250,289.2
	c-21.6,0-39.2-17.5-39.2-39.2s17.6-39.2,39.2-39.2s39.2,17.5,39.2,39.2S271.6,289.2,250,289.2"/>
<path class="st1" d="M326.9,187.2c0,7.8-6.3,14.1-14.1,14.1c-7.8,0-14.1-6.3-14.1-14.1c0-7.8,6.3-14.1,14.1-14.1
	C320.5,173.1,326.9,179.5,326.9,187.2"/>
</svg>
