<?xml version="1.0" encoding="utf-8"?>
<!-- Generator: Adobe Illustrator 27.0.1, SVG Export Plug-In . SVG Version: 6.00 Build 0)  -->
<svg version="1.1" id="Capa_1" xmlns="http://www.w3.org/2000/svg" xmlns:xlink="http://www.w3.org/1999/xlink" x="0px" y="0px"
	 viewBox="0 0 500 500" style="enable-background:new 0 0 500 500;" xml:space="preserve">
<style type="text/css">
	.st0{fill:none;stroke:#222221;stroke-width:10;stroke-miterlimit:10;}
	.st1{fill:#222221;}
</style>
<path class="st0" d="M257.9,464.4L257.9,464.4c-118.4,0-214.4-96-214.4-214.4s96-214.4,214.4-214.4s214.4,96,214.4,214.4
	S376.3,464.4,257.9,464.4z"/>
<rect x="160.7" y="202.2" class="st1" width="44.4" height="143.3"/>
<path class="st1" d="M182.7,183.4c14.5,0,26.2-11.9,26.2-26.4c0-14.6-11.8-26.4-26.2-26.4s-26.2,11.8-26.2,26.4
	C156.5,171.6,168.2,183.4,182.7,183.4"/>
<path class="st1" d="M276,270.3c0-20.2,9.3-32.2,27-32.2c16.3,0,24.2,11.5,24.2,32.2v75.2h44.2v-90.7c0-38.4-21.8-57-52.2-57
	c-30.4,0-43.2,23.7-43.2,23.7v-19.3h-42.6v143.3H276V270.3z"/>
</svg>
