<?xml version="1.0" encoding="utf-8"?>
<!-- Generator: Adobe Illustrator 17.0.0, SVG Export Plug-In . SVG Version: 6.00 Build 0)  -->
<!DOCTYPE svg PUBLIC "-//W3C//DTD SVG 1.1//EN" "http://www.w3.org/Graphics/SVG/1.1/DTD/svg11.dtd">
<svg version="1.1" id="Capa_1" xmlns="http://www.w3.org/2000/svg" xmlns:xlink="http://www.w3.org/1999/xlink" x="0px" y="0px"
	 width="42.833px" height="54.96px" viewBox="6.4 0 42.833 54.96" enable-background="new 6.4 0 42.833 54.96" xml:space="preserve"
	>
<g>
	<g>
		<g>
			<path fill="#000000" d="M48.903,15.282C47.402,4.421,36.578-1.109,25.03,0.186C15.9,1.209,6.797,8.591,6.419,19.147
				c-0.23,6.444,1.597,11.277,7.729,12.637c2.655-4.699-0.855-5.726-1.405-9.13C10.493,8.742,28.791-0.759,38.375,8.962
				c6.636,6.733,2.264,27.432-8.426,25.278c-10.24-2.054,5.015-18.532-3.157-21.764c-6.643-2.631-10.171,8.038-7.021,13.342
				c-1.848,9.12-5.826,17.707-4.215,29.142c5.221-3.792,6.983-11.043,8.426-18.611c2.624,1.597,4.029,3.25,7.375,3.507
				C43.696,40.815,50.596,27.538,48.903,15.282z"/>
		</g>
	</g>
</g>
</svg>
