<?xml version="1.0" encoding="utf-8"?>
<!-- Generator: Adobe Illustrator 27.0.1, SVG Export Plug-In . SVG Version: 6.00 Build 0)  -->
<svg version="1.1" id="Capa_1" xmlns="http://www.w3.org/2000/svg" xmlns:xlink="http://www.w3.org/1999/xlink" x="0px" y="0px"
	 viewBox="0 0 500 500" style="enable-background:new 0 0 500 500;" xml:space="preserve">
<style type="text/css">
	.st0{fill:none;stroke:#222221;stroke-width:10;stroke-miterlimit:10;}
</style>
<path class="st0" d="M250,470.7L250,470.7c-118.4,0-214.4-96-214.4-214.4S131.6,41.9,250,41.9s214.4,96,214.4,214.4
	S368.4,470.7,250,470.7z"/>
<path d="M178.2,223.8c-23,0-41.7,18.7-41.7,41.7s18.7,41.7,41.7,41.7s41.7-18.7,41.7-41.7C219.8,242.5,201.1,223.8,178.2,223.8z
	 M178.2,289.6c-13.3,0-24.1-10.8-24.1-24.1c0-13.3,10.8-24.1,24.1-24.1s24.1,10.8,24.1,24.1C202.3,278.7,191.5,289.6,178.2,289.6z"
	/>
<path d="M318.9,223.8c-23,0-41.7,18.7-41.7,41.7s18.7,41.7,41.7,41.7s41.7-18.7,41.7-41.7C360.6,242.5,341.9,223.8,318.9,223.8z
	 M318.9,289.6c-13.3,0-24.1-10.8-24.1-24.1c0-13.3,10.8-24.1,24.1-24.1s24.1,10.8,24.1,24.1C343,278.7,332.2,289.6,318.9,289.6z"/>
<path d="M399,186.3h-67.1c-20-19.4-50.8-30.9-83.4-30.9c-31.3,0-62.8,11.8-83.4,30.9H99.5l17.9,28.4C105.9,228.5,99,246.2,99,265.4
	c0,43.7,35.5,79.2,79.2,79.2c22.6,0,42.9-9.5,57.4-24.7l13,30l13-30c14.4,15.2,34.8,24.7,57.4,24.7c43.7,0,79.2-35.5,79.2-79.2
	c0-18.7-6.6-36-17.5-49.6L399,186.3z M304.8,187.6c-24.6,4.4-45.2,20.2-56.3,41.7c-11-21.3-31.5-37.1-55.8-41.6
	c16.1-9.3,35.9-14.7,55.8-14.7C269.3,173,289.1,178.3,304.8,187.6z M178.2,327.1c-34,0-61.6-27.7-61.6-61.6s27.6-61.6,61.6-61.6
	s61.6,27.7,61.6,61.6S212.1,327.1,178.2,327.1z M318.9,327.1c-34,0-61.6-27.7-61.6-61.6s27.7-61.6,61.6-61.6s61.6,27.7,61.6,61.6
	S352.8,327.1,318.9,327.1z"/>
<path d="M178.2,256.3c-5,0-9.2,4.1-9.2,9.2c0,5,4.1,9.2,9.2,9.2s9.2-4.1,9.2-9.2C187.3,260.4,183.2,256.3,178.2,256.3z"/>
<path d="M319.3,256.3c-5,0-9.2,4.1-9.2,9.2c0,5,4.1,9.2,9.2,9.2s9.2-4.1,9.2-9.2C328.5,260.4,324.4,256.3,319.3,256.3z"/>
</svg>
