<?xml version="1.0" encoding="utf-8"?>
<!-- Generator: Adobe Illustrator 27.0.1, SVG Export Plug-In . SVG Version: 6.00 Build 0)  -->
<svg version="1.1" id="Social_Icons" xmlns="http://www.w3.org/2000/svg" xmlns:xlink="http://www.w3.org/1999/xlink" x="0px"
	 y="0px" viewBox="0 0 128 128" style="enable-background:new 0 0 128 128;" xml:space="preserve">
<style type="text/css">
	.st0{fill-rule:evenodd;clip-rule:evenodd;fill:#000000;}
</style>
<g id="_x34__stroke">
	<g id="Youtube_1_">
		<path id="Youtube" class="st0" d="M126.7,38.2c0,0-1.3-8.9-5.1-12.8c-4.9-5.1-10.3-5.2-12.8-5.5C90.9,18.7,64,18.7,64,18.7l0,0
			c0,0-26.9,0-44.8,1.3c-2.5,0.3-8,0.3-12.8,5.5c-3.8,3.9-5.1,12.8-5.1,12.8S0,48.7,0,59.1v9.8c0,10.4,1.3,20.9,1.3,20.9
			s1.2,8.9,5.1,12.8c4.9,5.1,11.3,5,14.1,5.5c10.2,1,43.5,1.3,43.5,1.3s26.9,0,44.8-1.3c2.5-0.3,8-0.3,12.8-5.5
			c3.8-3.9,5.1-12.8,5.1-12.8s1.3-10.4,1.3-20.9v-9.8C128,48.7,126.7,38.2,126.7,38.2z M50.8,80.7V44.5l34.6,18.2L50.8,80.7z"/>
	</g>
</g>
</svg>
